<?xml version="1.0" encoding="UTF-8"?>
<!-- Do not edit this file with editors other than draw.io -->
<!DOCTYPE svg PUBLIC "-//W3C//DTD SVG 1.1//EN" "http://www.w3.org/Graphics/SVG/1.1/DTD/svg11.dtd">
<svg xmlns="http://www.w3.org/2000/svg" xmlns:xlink="http://www.w3.org/1999/xlink" version="1.1" width="290px" height="230px" viewBox="-0.5 -0.5 290 230" content="&lt;mxfile host=&quot;app.diagrams.net&quot; modified=&quot;2024-05-15T17:19:27.640Z&quot; agent=&quot;Mozilla/5.0 (X11; Linux x86_64) AppleWebKit/537.36 (KHTML, like Gecko) Chrome/124.0.0.0 Safari/537.36&quot; version=&quot;24.4.0&quot; etag=&quot;qGtqHCm89GBfzzwEjRkt&quot; type=&quot;google&quot; scale=&quot;1&quot; border=&quot;0&quot;&gt;&#10;  &lt;diagram name=&quot;Pagina-1&quot; id=&quot;PUW-c1yjOwB-4j_Uuz8w&quot;&gt;&#10;    &lt;mxGraphModel dx=&quot;3920&quot; dy=&quot;2967&quot; grid=&quot;1&quot; gridSize=&quot;10&quot; guides=&quot;1&quot; tooltips=&quot;1&quot; connect=&quot;1&quot; arrows=&quot;1&quot; fold=&quot;1&quot; page=&quot;1&quot; pageScale=&quot;1&quot; pageWidth=&quot;850&quot; pageHeight=&quot;1100&quot; math=&quot;0&quot; shadow=&quot;0&quot;&gt;&#10;      &lt;root&gt;&#10;        &lt;mxCell id=&quot;0&quot; /&gt;&#10;        &lt;mxCell id=&quot;1&quot; parent=&quot;0&quot; /&gt;&#10;        &lt;mxCell id=&quot;2&quot; value=&quot;&quot; style=&quot;outlineConnect=0;dashed=0;verticalLabelPosition=bottom;verticalAlign=top;align=center;html=1;shape=mxgraph.aws3.role;fillColor=#FF4040;strokeColor=#FFFFFF;gradientColor=none;strokeWidth=0;&quot; vertex=&quot;1&quot; parent=&quot;1&quot;&gt;&#10;          &lt;mxGeometry x=&quot;-1000&quot; y=&quot;-1560&quot; width=&quot;290&quot; height=&quot;230&quot; as=&quot;geometry&quot; /&gt;&#10;        &lt;/mxCell&gt;&#10;      &lt;/root&gt;&#10;    &lt;/mxGraphModel&gt;&#10;  &lt;/diagram&gt;&#10;&lt;/mxfile&gt;&#10;"><defs/><g><g><path d="M 158.57 219.01 C 144.37 224.81 130.78 229.04 112.4 229.48 C 92.49 230 71.75 227.56 50.12 222.24 C 30.68 216.96 14.25 211.68 6.17 199.69 C 0 190.75 3.9 174.31 16.15 159.22 C 30.91 140.86 32.39 136.85 37.45 108.89 C 39.45 95.72 46.31 80.2 53.23 66.9 C 61.63 51.24 69.38 39.99 76.39 32.75 C 88.73 19.89 102.7 11.95 118.9 6.72 C 129.71 3.27 145.9 0.04 158.48 0 C 175.88 0.04 188.88 4.71 200.67 9.94 C 214.96 16.62 227.16 24.03 239.14 35.06 C 251.44 46.44 259 58.35 264.48 70.47 C 268.47 79.81 270.23 86.52 271.62 92.89 C 274.64 106.54 278.58 114.78 282.99 120.63 C 286.8 124.81 289.95 128.96 290 134.8 C 290 140.08 287.49 145.83 276.03 155.86 C 264.43 166.15 250.6 172.09 230.55 182.64 C 214.45 190.88 199.18 198.69 182.15 207.28 C 174.68 211.03 167.72 214.56 158.57 219.01 Z" fill="#ff4040" stroke="none" pointer-events="all"/><path d="M 46.36 213.91 C 55.92 216.92 67.2 219.45 78.71 221.19 C 91.42 223.11 104.37 223.89 115 223.15 C 125.39 222.19 135.23 220.14 145.86 216.09 C 163.12 208.89 183.54 197.82 201.41 189.05 C 216.07 181.51 231.11 173.61 244.66 167.11 C 242.57 166.11 240.16 165.02 237.65 162.1 C 235.1 158.7 235.29 154.6 237.37 150.11 L 246.75 152.72 C 246.42 157.87 245.87 162.45 245.26 166.9 C 250.83 164.15 256.31 161.31 261.41 158.04 C 268.88 153.25 274.69 148.19 279.93 141.82 C 281.88 139.33 282.57 136.33 281.74 133.19 C 280.81 129.57 278.03 126.95 275.34 122.81 C 273.71 120.54 272.37 118.4 271.3 116.31 C 268.75 109.64 267.12 109.2 265.54 105.49 C 264.38 102.14 264.48 97.73 263.5 92.19 C 262.57 86.13 261.83 82.73 260.16 78.32 C 257.05 70.43 252.87 62.76 247.54 55.34 C 243.08 49.32 238.63 43.26 233.29 39.42 C 228.14 35.63 222.71 31.66 217 27.78 C 208.18 21.54 198.9 16.53 188.97 13.08 C 185.44 11.99 176.77 8.16 172.17 8.2 C 159.5 8.2 146.14 7.81 136.76 9.03 C 126.09 10.07 118.52 12.86 113.33 16.22 C 102.28 23.46 93.23 34.8 84.83 47.27 C 77.31 58.66 69.75 74.14 63.07 90.62 C 59.36 99.47 56.25 114 51.23 129.48 C 49.33 135.32 47.94 141.82 44.6 144 C 42.46 145.35 41.49 145.83 39.59 143.96 C 38.43 142.78 37.17 141.43 36.2 140.6 C 34.62 143.74 34.76 147.36 36.66 151.41 C 39.54 156.95 43.95 161.88 48.63 165.76 C 58.89 173.87 66.87 176.4 80.15 179.32 C 92.95 182.33 106.09 184.51 117.64 184.47 C 127.34 184.6 133.47 182.64 156.58 181.33 L 192.08 179.24 C 180.71 183.82 171.1 186.74 161.87 188.92 C 151.89 191.19 138.62 192.8 124.74 191.54 C 113.51 190.75 98.71 188.18 83.9 186.35 L 37.27 181.51 C 34.94 181.16 31.65 181.46 28.96 184.6 C 27.01 187.04 26.41 190.53 27.15 194.59 C 28.22 200.13 31.05 204.62 34.3 207.93 C 38.84 212.21 41.35 212.25 46.36 213.91 Z M 158.57 219.01 C 144.37 224.81 130.78 229 112.4 229.48 C 92.49 230 71.7 227.51 50.12 222.24 C 30.68 216.96 14.15 211.68 6.17 199.69 C 0.05 190.75 3.9 174.22 16.15 159.22 C 30.91 140.82 32.44 136.85 37.45 108.89 C 39.49 95.72 46.27 80.2 53.23 66.9 C 61.63 51.2 69.33 39.95 76.39 32.75 C 88.73 19.89 102.7 11.99 118.9 6.72 C 129.71 3.27 145.9 0.04 158.48 0 C 175.88 0.09 188.83 4.67 200.67 9.94 C 214.96 16.62 227.16 24.03 239.14 35.06 C 251.44 46.4 259.05 58.31 264.48 70.47 C 268.47 79.81 270.18 86.52 271.62 92.89 C 274.59 106.5 278.58 114.83 282.99 120.63 C 286.75 124.81 289.95 128.96 290 134.8 C 290 140.03 287.49 145.83 276.03 155.86 C 264.43 166.15 250.55 172.13 230.55 182.64 C 214.5 190.88 199.13 198.69 182.15 207.28 C 174.68 211.03 167.72 214.56 158.57 219.01 Z" fill-opacity="0.3" fill="#000000" stroke="none" pointer-events="all"/><path d="M 140.24 152.77 C 128.59 152.98 123.44 144.92 119.5 136.94 C 114.39 125.68 115.32 116.7 116.34 100.91 C 117.55 87.66 119.96 74.62 125.3 61.36 C 129.89 50.11 135.65 40.47 143.21 31.62 C 147.99 25.95 159.08 15.13 164.28 12.86 C 168.04 10.99 173.01 9.51 179.5 9.73 C 181.69 10.47 183.87 11.21 185.95 12.04 C 178.3 14.09 172.36 17.4 168.04 20.8 C 158.85 27.69 150.45 40.47 142.47 56.17 C 136.48 68.12 131.7 81.03 129.71 96.25 C 128.04 109.11 129.85 122.33 132.63 132.97 C 134.77 140.9 137.78 146.7 140.24 152.77 Z M 263.5 92.19 C 258.77 80.02 252.83 69.91 239.04 64.28 C 231.71 61.32 222.76 60.49 213.71 62.58 C 205.07 64.67 196.21 69.73 189.48 79.2 C 183.96 87 178.85 97.29 175.61 109.85 C 173.42 117.53 172.13 128.39 170.5 137.68 C 166 130.13 161.5 120.97 162.43 98.43 C 163.31 80.94 168.69 67.07 177.6 56 C 185.86 45.53 195.51 37.29 208.65 34.41 C 216.82 32.45 220.48 34.06 225.86 34.02 L 233.29 39.42 C 238.63 43.26 243.08 49.32 247.54 55.34 C 252.87 62.76 257.05 70.43 260.16 78.32 C 261.88 82.68 262.57 86.09 263.5 92.19 Z M 247.44 152.77 C 243.73 151.72 240.07 150.8 238.07 150.11 C 242.94 147.23 247.63 144.35 253.2 141.51 C 256.54 139.73 259 138.11 262.71 137.98 L 267.63 137.68 C 267.86 138.38 268.1 138.81 268.33 139.29 L 258.3 145.79 C 254.92 147.97 251.25 150.15 247.44 152.77 Z M 50.44 160.57 C 50.4 159.83 50.44 159.18 50.82 158.61 C 54.76 158.48 58.38 158.22 61.12 158.74 C 70.54 160.35 79.68 162.36 87.85 163.63 C 101.26 165.94 115.28 166.85 128.32 166.33 C 142.01 165.85 164.19 162.58 180.29 158.92 C 194.54 155.56 207.16 151.76 219 146.79 C 233.61 140.47 248.84 133.67 258.81 126.12 C 266.01 119.97 267.49 114.69 268.23 110.07 C 269.35 111.69 270.32 113.91 271.3 116.31 C 270.74 120.8 269.44 124.03 265.03 127.73 C 258.35 133.1 250.51 138.94 240.2 144.48 C 223.78 153.55 204.8 160.53 183.12 165.28 C 165.63 168.77 146.69 172.3 124.37 174.66 C 113.56 175.92 100.84 174.18 87.25 170.47 C 74.95 167.2 63.49 164.72 50.44 160.57 Z" fill-opacity="0.3" fill="#ffffff" stroke="none" pointer-events="all"/></g></g></svg>